<?xml version="1.0" encoding="utf-8"?>
<!-- Generator: Adobe Illustrator 15.1.0, SVG Export Plug-In  -->
<!DOCTYPE svg PUBLIC "-//W3C//DTD SVG 1.1//EN" "http://www.w3.org/Graphics/SVG/1.1/DTD/svg11.dtd" [
	<!ENTITY ns_flows "http://ns.adobe.com/Flows/1.0/">
]>
<svg version="1.1"
	 xmlns="http://www.w3.org/2000/svg" xmlns:xlink="http://www.w3.org/1999/xlink" xmlns:a="http://ns.adobe.com/AdobeSVGViewerExtensions/3.0/"
	 x="0px" y="0px" width="32px" height="31px" viewBox="0 0 32 31" overflow="visible" enable-background="new 0 0 32 31"
	 xml:space="preserve">
<defs>
</defs>
<path fill="#C4C4C4" d="M26.361,10.909c-1.386-0.19-4.381-0.341-5.323-0.909c-0.99-0.596-2.002-3.62-2.598-4.805
	C17.421,3.168,16.662,1.249,15.843,0c-0.666,1.706-1.563,3.14-2.596,5.195C12.572,6.537,11.83,9.353,10.649,10
	c-1.249,0.685-3.477,0.673-5.195,0.909C3.62,11.159,1.766,11.267,0,11.688c1.012,1.21,2.435,2.562,3.896,4.023
	c0.961,0.961,3.714,2.709,3.897,4.289c0.169,1.475-0.625,3.461-0.911,5.193c-0.292,1.783-0.61,3.53-0.907,5.323
	c1.618-0.796,3.131-1.54,4.935-2.468c1.467-0.755,3.461-2.504,5.063-2.467c1.582,0.036,3.531,1.744,4.936,2.467
	c1.783,0.917,3.305,1.665,4.933,2.468c-0.295-1.786-0.614-3.53-0.907-5.323c-0.288-1.755-1.129-3.826-0.909-5.326
	c0.106-0.721,1.095-1.537,1.816-2.207c1.971-1.816,3.476-3.398,5.197-5.063c0.218-0.214,0.898-0.473,0.647-0.909
	C29.984,11.243,28.2,11.161,26.361,10.909z"/>
</svg>
