<?xml version="1.0" encoding="utf-8"?>
<!-- Generator: Adobe Illustrator 15.1.0, SVG Export Plug-In  -->
<!DOCTYPE svg PUBLIC "-//W3C//DTD SVG 1.1//EN" "http://www.w3.org/Graphics/SVG/1.1/DTD/svg11.dtd" [
	<!ENTITY ns_flows "http://ns.adobe.com/Flows/1.0/">
]>
<svg version="1.1"
	 xmlns="http://www.w3.org/2000/svg" xmlns:xlink="http://www.w3.org/1999/xlink" xmlns:a="http://ns.adobe.com/AdobeSVGViewerExtensions/3.0/"
	 x="0px" y="0px" width="81px" height="81px" viewBox="0 0 81 81" overflow="visible" enable-background="new 0 0 81 81"
	 xml:space="preserve">
<defs>
</defs>
<path fill="#C4C4C4" d="M81.088,63.086c0,9.9-8.1,18-18,18H18c-9.898,0-18-8.1-18-18V18C0,8.101,8.102,0,18,0h45.088
	c9.9,0,18,8.101,18,18V63.086z"/>
<path fill-rule="evenodd" clip-rule="evenodd" fill="#FFFFFF" d="M43.393,26.642c7.545-2.139,5.938-16.8-4.431-14.559
	C28.259,14.397,33.972,29.31,43.393,26.642z M47.189,28.54c-7.431,5.302-23.257-5.775-24.053,8.229
	c6.874,0.299,12.146,2.203,17.091,4.43c5.735-1.859,10.753-4.438,18.355-4.43C59.118,29.692,52.284,29.986,47.189,28.54z
	 M19.973,39.933c0,6.751,0,13.501,0,20.253c7.989,0.029,13.672,2.361,19.622,4.432c0-6.963,0-13.926,0-20.889
	C33.393,42.124,28.382,39.331,19.973,39.933z M41.493,43.729c0.42,6.756-0.84,15.188,0.633,20.889
	c5.413-2.393,11.307-4.307,18.987-4.432c0-6.752,0-13.502,0-20.253C52.742,39.368,48.02,42.45,41.493,43.729z"/>
<path fill-rule="evenodd" clip-rule="evenodd" fill="#FFFFFF" d="M38.962,12.083c10.368-2.241,11.976,12.42,4.431,14.559
	C33.972,29.31,28.259,14.397,38.962,12.083z"/>
<path fill-rule="evenodd" clip-rule="evenodd" fill="#FFFFFF" d="M58.583,36.769c-7.603-0.008-12.62,2.57-18.355,4.43
	c-4.945-2.227-10.217-4.131-17.091-4.43c0.796-14.004,16.622-2.927,24.053-8.229C52.284,29.986,59.118,29.692,58.583,36.769z"/>
<path fill-rule="evenodd" clip-rule="evenodd" fill="#FFFFFF" d="M39.595,43.729c0,6.963,0,13.926,0,20.889
	c-5.95-2.07-11.633-4.402-19.622-4.432c0-6.752,0-13.502,0-20.253C28.382,39.331,33.393,42.124,39.595,43.729z"/>
<path fill-rule="evenodd" clip-rule="evenodd" fill="#FFFFFF" d="M61.113,39.933c0,6.751,0,13.501,0,20.253
	c-7.681,0.125-13.574,2.039-18.987,4.432c-1.473-5.701-0.213-14.133-0.633-20.889C48.02,42.45,52.742,39.368,61.113,39.933z"/>
</svg>
