<?xml version="1.0" encoding="utf-8"?>
<!-- Generator: Adobe Illustrator 15.1.0, SVG Export Plug-In  -->
<!DOCTYPE svg PUBLIC "-//W3C//DTD SVG 1.1//EN" "http://www.w3.org/Graphics/SVG/1.1/DTD/svg11.dtd" [
	<!ENTITY ns_flows "http://ns.adobe.com/Flows/1.0/">
]>
<svg version="1.1"
	 xmlns="http://www.w3.org/2000/svg" xmlns:xlink="http://www.w3.org/1999/xlink" xmlns:a="http://ns.adobe.com/AdobeSVGViewerExtensions/3.0/"
	 x="0px" y="0px" width="81px" height="81px" viewBox="0.647 0.001 81 81"
	 overflow="visible" enable-background="new 0.647 0.001 81 81" xml:space="preserve">
<defs>
</defs>
<path fill="#C4C4C4" d="M81.085,63.087c0,9.9-8.099,18-18,18H18c-9.9,0-18-8.1-18-18V18C0,8.102,8.1,0,18,0h45.085
	c9.901,0,18,8.102,18,18V63.087z"/>
<path fill="#FFFFFF" d="M48.15,23.805c0-3.336,0-6.672,0-10.008c-8.341,0-16.681,0-25.019,0c-1.386,14.766-1.386,35.275,0,50.041
	c11.952,0,23.907,0,35.862,0c0-12.789,0-25.576,0-38.363C57.039,23.258,50.036,26.09,48.15,23.805z M28.969,57.166
	c5.622-0.885,19.103-2.432,23.351,0.834C44.757,57.5,35.164,59.033,28.969,57.166z M48.15,42.154
	c-1.558,3.188-12.104,1.77-15.01,0.832C34.694,39.799,45.243,41.217,48.15,42.154z M33.141,37.984
	c0.207-3.236,8.413-1.611,10.006-0.836C42.718,39.816,34.752,39.27,33.141,37.984z M48.15,51.328
	c-1.558,3.188-12.104,1.77-15.01,0.834C34.694,48.972,45.243,50.39,48.15,51.328z M40.645,46.322
	c0.646,2.926-6.878,1.945-7.504,0.836C32.491,44.23,40.018,45.214,40.645,46.322z M28.969,32.146c0-0.557,0-1.113,0-1.67
	c4.547-3.023,16.081,1.061,23.351,0.836C46.199,33.252,36.48,31.594,28.969,32.146z"/>
</svg>
