<?xml version="1.0" encoding="utf-8"?>
<!-- Generator: Adobe Illustrator 15.1.0, SVG Export Plug-In  -->
<!DOCTYPE svg PUBLIC "-//W3C//DTD SVG 1.1//EN" "http://www.w3.org/Graphics/SVG/1.1/DTD/svg11.dtd" [
	<!ENTITY ns_flows "http://ns.adobe.com/Flows/1.0/">
]>
<svg version="1.1"
	 xmlns="http://www.w3.org/2000/svg" xmlns:xlink="http://www.w3.org/1999/xlink" xmlns:a="http://ns.adobe.com/AdobeSVGViewerExtensions/3.0/"
	 x="0px" y="0px" width="64px" height="64px" viewBox="0 0.158 64 64" overflow="visible" enable-background="new 0 0.158 64 64"
	 xml:space="preserve">
<defs>
</defs>
<path fill="#9B9B9B" d="M64.102,49.873c0,7.824-6.404,14.229-14.229,14.229H14.23C6.402,64.102,0,57.697,0,49.873V14.229
	C0,6.406,6.402,0,14.23,0h35.643c7.824,0,14.229,6.406,14.229,14.229V49.873z"/>
<path fill-rule="evenodd" clip-rule="evenodd" fill="#FFFFFF" d="M17.648,11.35c2.176-0.605,6.412-0.143,9.453-0.143
	c2.932,0,6.734-0.588,9.166,0c1.004,0.24,2.443,2.012,3.295,2.863c1.082,1.082,1.904,2.049,3.008,3.15
	c1.555,1.557,5.627,4.713,6.016,6.303c0.434,1.783,0,4.844,0,7.447c0,5.016,0,9.467,0,14.611c0,2.057,0.381,5.291-0.859,6.443
	c-1.182,1.1-5.107,0.717-7.592,0.717c-6.332,0-10.234,0-16.328,0c-2.621,0-6.275,0.248-7.305-0.859
	c-1.238-1.332-0.717-7.469-0.717-10.025c0-5.67,0-15.703,0-21.342C15.785,17.322,14.979,12.092,17.648,11.35z M17.791,12.637
	c-0.939,1.158-0.572,2.828-0.572,4.299c0,8.211,0,16.615,0,24.635c0,3.277-0.348,6.57,0.43,9.453
	c6.76,0.52,14.959,0.287,22.057,0.287c2.475,0,5.029,0.34,7.16-0.43c0.666-8.551,0.1-18.332,0.289-27.357
	c-3.461-0.699-7.785,1.135-10.027-0.43c-2.428-1.691-0.258-6.928-1.002-10.457C30.344,12.396,23.572,12.404,17.791,12.637z
	 M37.844,21.805c1.947,0.631,5.033,0.123,7.447,0.287c-2.09-2.543-5.168-5.336-7.734-7.879
	C37.721,16.676,37.211,19.811,37.844,21.805z"/>
<path fill-rule="evenodd" clip-rule="evenodd" fill="#FFFFFF" d="M27.531,48.875c-0.453-0.453-1.314-0.5-1.576-1.146
	c-2.07,2.535-7.082,0.617-6.016-3.15c0.459-1.623,2.529-2.756,4.441-2.148c0.305,0.096,1,1.135,1.432,1.146
	c0.408,0.01,1.592-1.221,2.291-1.289C32.953,41.814,33.242,49.84,27.531,48.875z M21.229,45.867c0.238,2.551,4.182,2.156,4.01-0.43
	c-0.076-1.156-0.928-2.162-2.721-1.576C21.566,44.174,21.129,44.797,21.229,45.867z M28.246,47.586
	c2.801,0.287,3.127-4.855-0.43-3.725C25.365,44.643,27.031,47.461,28.246,47.586z"/>
<path fill-rule="evenodd" clip-rule="evenodd" fill="#FFFFFF" d="M33.689,43.432c-0.051-0.574,0.002-1.049,0.43-1.145
	c1.801,0,3.387,0,5.586,0c1.109,0,4.734-0.549,4.727,0.717c-0.006,1.201-3.773,0.715-5.156,0.715
	C36.994,43.719,35.053,43.922,33.689,43.432z"/>
<path fill-rule="evenodd" clip-rule="evenodd" fill="#FFFFFF" d="M44.574,45.582c-0.861,1.229-3.305,0.715-5.299,0.715
	c-2.002,0-4.23,0.219-5.586-0.287c-0.172-1.854,3.508-1.145,6.16-1.145C41.875,44.865,44.199,44.479,44.574,45.582z"/>
<path fill-rule="evenodd" clip-rule="evenodd" fill="#FFFFFF" d="M44.432,48.445c-0.412,0.771-1.613,0.43-2.436,0.43
	c-2.547,0-5.896,0.115-8.307-0.143c-0.051-0.576,0.002-1.049,0.43-1.146c1.535,0,3.768,0,5.73,0
	C41.619,47.586,44.305,47.031,44.432,48.445z"/>
<path fill-rule="evenodd" clip-rule="evenodd" fill="#FFFFFF" d="M42.328,36.816c0,0.662-0.539,1.199-1.201,1.199H23.184
	c-0.664,0-1.201-0.537-1.201-1.199v-8.605c0-0.664,0.537-1.201,1.201-1.201h17.943c0.662,0,1.201,0.537,1.201,1.201V36.816z"/>
<path fill-rule="evenodd" clip-rule="evenodd" fill="#FFFFFF" d="M32.654,22.141c0,0.664-0.537,1.201-1.199,1.201h-7.938
	c-0.664,0-1.201-0.537-1.201-1.201v-6.27c0-0.664,0.537-1.201,1.201-1.201h7.938c0.662,0,1.199,0.537,1.199,1.201V22.141z"/>
</svg>
