<?xml version="1.0" encoding="utf-8"?>
<!-- Generator: Adobe Illustrator 15.1.0, SVG Export Plug-In  -->
<!DOCTYPE svg PUBLIC "-//W3C//DTD SVG 1.1//EN" "http://www.w3.org/Graphics/SVG/1.1/DTD/svg11.dtd" [
	<!ENTITY ns_flows "http://ns.adobe.com/Flows/1.0/">
]>
<svg version="1.1"
	 xmlns="http://www.w3.org/2000/svg" xmlns:xlink="http://www.w3.org/1999/xlink" xmlns:a="http://ns.adobe.com/AdobeSVGViewerExtensions/3.0/"
	 x="0px" y="0px" width="81px" height="81px" viewBox="0.472 -0.001 81 81"
	 overflow="visible" enable-background="new 0.472 -0.001 81 81" xml:space="preserve">
<defs>
</defs>
<path fill="#C4C4C4" d="M63.087,0c9.9,0,18,8.1,18,18v45.085c0,9.9-8.1,18-18,18H18c-9.901,0-18-8.1-18-18V18C0,8.1,8.099,0,18,0"/>
<path fill="#FFFFFF" d="M40.226,33.119c5.695-4.221,13.992-5.838,18.988-10.76c-7.283,0.094-17.709,13.184-24.686,7.596
	c6.799-3.121,13.889-5.943,19.619-10.127c-7.549-0.258-16.521,12.559-24.682,7.594c6.16-3.543,13.541-5.869,18.985-10.127
	c-7.003,0.086-16.413,12.23-24.049,7.596c5.761-3.945,13.257-6.154,18.987-10.127c-7.711-0.275-16.658,12.217-24.686,7.596
	c5.979-3.518,12.309-6.682,18.99-9.494c-0.072-0.771-0.193-1.498-1.266-1.266c-6.117,3.799-13.152,6.68-19.621,10.127
	c0,9.705,0,19.408,0,29.113c9.511,3.992,18.051,8.955,27.215,13.293c6.345-3.783,13.191-7.064,20.256-10.127
	c0-9.705,0-19.41,0-29.115C55.909,26.518,47.892,36.92,40.226,33.119z M48.451,43.878c2.612-3.296,7.378-4.441,11.396-6.33
	C57.818,41.014,51.173,43.212,48.451,43.878z M59.847,35.65c-3.514,1.973-7.602,3.369-10.76,5.695
	c-1.414-0.271-0.254-3.119-0.636-4.43C51.752,36.387,60.63,26.609,59.847,35.65z"/>
</svg>
