<?xml version="1.0" encoding="utf-8"?>
<!-- Generator: Adobe Illustrator 15.1.0, SVG Export Plug-In  -->
<!DOCTYPE svg PUBLIC "-//W3C//DTD SVG 1.1//EN" "http://www.w3.org/Graphics/SVG/1.1/DTD/svg11.dtd" [
	<!ENTITY ns_flows "http://ns.adobe.com/Flows/1.0/">
]>
<svg version="1.1"
	 xmlns="http://www.w3.org/2000/svg" xmlns:xlink="http://www.w3.org/1999/xlink" xmlns:a="http://ns.adobe.com/AdobeSVGViewerExtensions/3.0/"
	 x="0px" y="0px" width="64px" height="64px" viewBox="0 0 64 64" overflow="visible" enable-background="new 0 0 64 64"
	 xml:space="preserve">
<defs>
</defs>
<path fill="#9B9B9B" d="M64.102,49.873c0,7.822-6.404,14.229-14.229,14.229H14.23C6.402,64.102,0,57.695,0,49.873V14.229
	C0,6.404,6.402,0,14.23,0h35.643c7.824,0,14.229,6.404,14.229,14.229V49.873z"/>
<path fill-rule="evenodd" clip-rule="evenodd" fill="#FFFFFF" d="M17.977,15.09c-0.422-4.678,5.088-3.436,9.523-3.436
	c2.291,0,4.691,0,7.025,0c3.395,0,11.916-0.883,13.115,1.094c0.969,1.596,0.312,7.047,0.312,9.367c0,7.303,0,11.723,0,19.205
	c0,2.504,0.627,7.654-0.469,9.057c-1.17,1.496-3.566,0.404-5.777,0.936c-1.645,0.396-2.074,2.775-3.902,3.279
	c-1.414,0.391-3.779,0-5.621,0c-1.801,0-3.67,0-5.465,0c-3.236,0-8.811,0.641-10.148-0.781c-1.061-1.123-0.781-5.926-0.781-8.742
	c0-7.059,0-12.076,0-19.049C15.789,21.836,14.672,15.777,17.977,15.09z M47.174,41.01c0-7.172,0-11.838,0-18.895
	c0-2.498,0.484-8.092-0.471-9.055c-0.898-0.91-4.506-0.469-6.244-0.469c-5.363,0-8.613,0-13.428,0c-3.381,0-8.49-1.154-8.119,2.342
	c6.5,0,13.184,0,19.674,0c1.756,0,5.07-0.318,6.244,0.469c1.598,1.068,1.094,4.953,1.094,7.963c0,5.475,0,10.139,0,15.301
	c0,2.557,0.535,5.854,0,7.807c-0.389,1.416-3.512,2.9-3.279,3.904C48.695,52.152,47.174,45.625,47.174,41.01z M44.986,23.521
	c0-2.158,0.422-6.301-0.467-7.182c-0.828-0.818-4.734-0.469-6.09-0.469c-5.201,0-8.562,0-13.43,0c-2.127,0-4.758-0.467-6.713,0
	c-2.314,0.551-1.561,5.467-1.561,8.744c0,7.162,0,12.553,0,19.359c0,2.053-0.693,8.039,0.467,9.213
	c1.234,1.248,8.199,0.469,10.15,0.469c3.514,0,6.695,0.133,10.461-0.156c0.1-2.295-0.203-4.99,0.156-7.027c2.342,0,4.684,0,7.025,0
	C44.986,38.775,44.986,31.273,44.986,23.521z"/>
<path fill-rule="evenodd" clip-rule="evenodd" fill="#FFFFFF" d="M21.879,21.18c6.193,0,12.387,0,18.58,0c0,3.486,0,6.975,0,10.461
	c-6.193-0.104-12.803,0.207-18.736-0.156C21.826,28.102,21.514,24.303,21.879,21.18z"/>
<path fill-rule="evenodd" clip-rule="evenodd" fill="#FFFFFF" d="M22.035,35.857c6.141,0,12.283,0,18.424,0c0,0.727,0,1.455,0,2.186
	c-6.246,0-12.492,0-18.736,0C21.85,37.336,21.422,36.076,22.035,35.857z"/>
<path fill-rule="evenodd" clip-rule="evenodd" fill="#FFFFFF" d="M22.035,40.072c6.141,0,12.283,0,18.424,0c0,0.729,0,1.457,0,2.186
	c-6.246,0-12.492,0-18.736,0C21.85,41.553,21.422,40.291,22.035,40.072z"/>
<path fill-rule="evenodd" clip-rule="evenodd" fill="#FFFFFF" d="M31.09,44.287c0,0.729,0,1.457,0,2.186c-3.123,0-6.244,0-9.367,0
	c0.066-0.713-0.158-1.719,0.156-2.186C24.949,44.287,28.02,44.287,31.09,44.287z"/>
</svg>
