<?xml version="1.0" encoding="utf-8"?>
<!-- Generator: Adobe Illustrator 15.1.0, SVG Export Plug-In  -->
<!DOCTYPE svg PUBLIC "-//W3C//DTD SVG 1.1//EN" "http://www.w3.org/Graphics/SVG/1.1/DTD/svg11.dtd" [
	<!ENTITY ns_flows "http://ns.adobe.com/Flows/1.0/">
]>
<svg version="1.1"
	 xmlns="http://www.w3.org/2000/svg" xmlns:xlink="http://www.w3.org/1999/xlink" xmlns:a="http://ns.adobe.com/AdobeSVGViewerExtensions/3.0/"
	 x="0px" y="0px" width="64px" height="64px" viewBox="0 -0.094 64 64" overflow="visible" enable-background="new 0 -0.094 64 64"
	 xml:space="preserve">
<defs>
</defs>
<path fill="#9B9B9B" d="M64.102,49.873c0,7.822-6.404,14.229-14.229,14.229H14.23C6.402,64.102,0,57.695,0,49.873V14.229
	C0,6.404,6.402,0,14.23,0h35.643c7.824,0,14.229,6.404,14.229,14.229V49.873z"/>
<path fill-rule="evenodd" clip-rule="evenodd" fill="#FFFFFF" d="M44.207,39.541c-1.256,4.383,1.637,12.109-1.824,13.982
	c-1.977,1.07-7.068,0.406-10.537,0.406c-4.404,0-10.414,0.854-11.754-1.623c-0.863-1.596-0.172-4.775-0.404-6.686
	c-1.969-0.174-5.494,0.463-6.891-0.609c-2.355-1.807-1.215-9.666-1.215-13.982c0-3.059-1.1-12.031,1.012-13.982
	c1.459-1.348,4.986-0.811,7.498-0.811c2.277,0,5.193,0,8.309,0c-1.293-8.008,6.08-6.283,13.781-6.283
	c3.512,0,8.162-0.381,9.523,0.811c2.25,1.969,1.014,10.486,1.014,13.984c0,3.465,1.045,12.182-1.014,13.982
	C50.207,40.039,47.139,39.354,44.207,39.541z M31.238,11.98c-1.762,2.695-0.363,8.555-0.811,12.564c1.891,0,3.783,0,5.674,0
	c0.457-1.705,0.078-4.244,0.203-6.283c-0.65-0.285-2.391,2.094-3.242,0.406c1.414-1.289,2.904-2.5,4.457-3.648
	c1.32,2.057,0.273,6.482,0.607,9.525c1.949,0.125,3.689,0.041,4.662-0.811c2.131,0.342,6.883-0.994,6.281,1.418
	c-1.125,1.037-4.424-0.102-5.877,0.609c0.496,0.584,0.85,1.312,0.811,2.432c1.572,0.318,4.475-0.689,5.066,0.607
	c0.576,1.889-3.268,1.033-5.066,1.215c0,0.812,0,1.621,0,2.434c1.893,0.268,5.125-0.803,5.27,1.215
	c-0.695,1.332-3.414,0.639-5.27,0.811c0,1.014,0,2.025,0,3.039c2.039-0.123,4.578,0.256,6.283-0.201
	c1.086-3.377,0.607-8.035,0.607-12.363c0-4.521,0.314-9.088-0.406-12.766C44.473,11.715,37.592,12.111,31.238,11.98z M13.811,18.465
	c-0.209,7.848-0.6,17.619,0.201,25.129c1.537,0.422,3.814,0.104,5.676,0.203c0-1.082,0-2.162,0-3.242
	c-1.408-0.215-3.902,0.658-3.852-1.014C16,38.15,18.332,38.93,19.688,38.73c0-0.811,0-1.621,0-2.432
	c-1.523-0.098-3.646,0.402-3.852-1.014c0.09-1.533,2.367-0.875,3.852-1.014c0-0.877,0-1.756,0-2.635
	c-5.549-0.088-4.863-11.859,1.012-10.334c1.236,0.32,1.91,1.594,2.23,3.242c1.789-0.506,5.779,1.186,5.674-1.217
	c-1.178-0.646-4.305,0.658-3.648-1.822c0.789-0.426,2.332-0.102,3.445-0.203c0.326-0.689,0.326-2.555,0-3.242
	C23.637,18.295,17.91,17.566,13.811,18.465z M19.688,30.219c-1.01-3.684,2.777-5.125,0.607-7.498
	C16.75,22.301,17.312,29.789,19.688,30.219z M21.916,26.977c-0.338,7.701-0.336,16.818,0,24.52c5.693,0.674,14.166,0.674,19.859,0
	c0.338-7.77,0.338-16.953,0-24.723c-5.619-0.934-12.961-0.145-19.252-0.404C22.232,26.482,22.029,26.686,21.916,26.977z"/>
<path fill-rule="evenodd" clip-rule="evenodd" fill="#FFFFFF" d="M49.273,15.832c-0.711,1.795-5.859,1.061-7.498,0.607
	C41.729,13.943,48.375,14.793,49.273,15.832z"/>
<path fill-rule="evenodd" clip-rule="evenodd" fill="#FFFFFF" d="M49.273,20.086c-0.469,2.203-5.293,1.008-7.295,1.014
	C40.959,18.369,48.133,19.342,49.273,20.086z"/>
<path fill-rule="evenodd" clip-rule="evenodd" fill="#FFFFFF" d="M26.779,37.92c1.676,0.148,4.139-0.49,4.662,0.811
	c-0.84,1.475-5.615,0.887-7.094,0.404c-0.57-2.947,5.479-4.311,4.863-7.092c-0.164-0.742-0.604-1.164-1.418-1.215
	c-1.967-0.127-1.102,1.992-2.838,2.43c-2.297-4.363,6.104-5.314,6.283-1.012C31.363,35.254,27.939,35.719,26.779,37.92z"/>
<path fill-rule="evenodd" clip-rule="evenodd" fill="#FFFFFF" d="M40.357,30.219c-0.555,1.891-5.785,0.996-7.295,0.609
	c-0.027-0.5-0.031-0.979,0.201-1.217C35.092,29.561,39.494,28.635,40.357,30.219z"/>
<path fill-rule="evenodd" clip-rule="evenodd" fill="#FFFFFF" d="M40.357,34.879c-0.918,1.463-5.746,0.896-7.295,0.406
	c-0.027-0.5-0.031-0.977,0.201-1.215C35.082,34.094,39.814,32.908,40.357,34.879z"/>
<path fill-rule="evenodd" clip-rule="evenodd" fill="#FFFFFF" d="M40.357,38.73c-0.297,2.352-5.416,0.918-7.295,1.014
	C32.752,36.912,39.143,38.07,40.357,38.73z"/>
<path fill-rule="evenodd" clip-rule="evenodd" fill="#FFFFFF" d="M40.357,43.391c-0.113,1.6-2.402,1.014-3.648,1.014
	c-3.898,0-9.801,0.471-12.768-0.607c-0.107-0.717,0.172-1.045,0.609-1.217c3.781,0.033,8.41-0.043,12.564,0
	C38.217,42.592,40.014,42.074,40.357,43.391z"/>
<path fill-rule="evenodd" clip-rule="evenodd" fill="#FFFFFF" d="M23.941,48.053c0.727-2.012,5.312-1.217,9.322-1.217
	c2.23,0,7.09-0.586,7.094,1.014c0.004,1.805-6.5,1.014-8.105,1.014C28.914,48.863,25.395,49.41,23.941,48.053z"/>
</svg>
