<?xml version="1.0" encoding="utf-8"?>
<!-- Generator: Adobe Illustrator 15.1.0, SVG Export Plug-In  -->
<!DOCTYPE svg PUBLIC "-//W3C//DTD SVG 1.1//EN" "http://www.w3.org/Graphics/SVG/1.1/DTD/svg11.dtd" [
	<!ENTITY ns_flows "http://ns.adobe.com/Flows/1.0/">
]>
<svg version="1.1"
	 xmlns="http://www.w3.org/2000/svg" xmlns:xlink="http://www.w3.org/1999/xlink" xmlns:a="http://ns.adobe.com/AdobeSVGViewerExtensions/3.0/"
	 x="0px" y="0px" width="24px" height="24px" viewBox="0 0 24 24" overflow="visible" enable-background="new 0 0 24 24"
	 xml:space="preserve">
<defs>
</defs>
<path fill-rule="evenodd" clip-rule="evenodd" fill="#C4C4C4" d="M10.962,0.036c3.723-0.291,6.865,1.216,8.791,3.021
	c1.96,1.839,3.659,4.426,3.916,7.898c0.28,3.795-1.201,6.818-3.022,8.793c-1.965,2.129-4.513,3.575-7.968,3.846
	c-3.587,0.281-6.648-1.068-8.723-2.953c-2.161-1.966-3.624-4.334-3.914-7.899c-0.313-3.825,1.161-6.87,2.884-8.792
	C4.692,1.982,7.376,0.316,10.962,0.036z M20.854,8.278c0.042-0.261-0.363-0.913-0.551-1.236c-1.481-2.566-4.138-4.701-7.556-4.945
	c-4.236-0.305-6.991,1.57-8.723,3.915c-0.531,0.72-1.996,2.503-0.618,2.884c0.042,0.143-0.111,0.479,0.137,0.412
	C5.421,9.32,7.339,10.112,9.04,9.927c1.175-0.129,1.536-1.018,2.815-1.031c1.156-0.012,1.708,0.956,3.021,1.031
	c1.609,0.091,3.266-0.586,5.29-0.619C20.092,8.702,20.778,8.731,20.854,8.278z M6.635,20.091c0.557,0.354,2.394,1.371,3.092,1.237
	c0.488-0.095,0.52-0.841,0.961-1.03c0.058-2.576,0.037-4.963-1.03-6.457c-1.329-1.855-4.046-2.014-6.457-2.815
	c-0.115,0.503-0.868,0.367-1.099,0.755C2.101,15.593,4.066,18.458,6.635,20.091z M20.509,11.095c-0.028-0.117-0.089,0.014-0.206,0
	c-2.188,0.598-4.171,0.93-5.633,2.129c-1.762,1.444-1.796,4.113-2.06,7.143c0.466,0.133,0.439,0.912,0.893,1.03
	c0.384,0.1,1.258-0.313,1.718-0.48c3.699-1.353,6.424-4.772,6.25-9.272C21.267,11.345,20.542,11.564,20.509,11.095z M11.855,13.36
	c2.079-0.035,1.771-3.275-0.274-2.953C9.901,10.671,9.918,13.394,11.855,13.36z"/>
</svg>
