<?xml version="1.0" encoding="utf-8"?>
<!-- Generator: Adobe Illustrator 15.1.0, SVG Export Plug-In  -->
<!DOCTYPE svg PUBLIC "-//W3C//DTD SVG 1.1//EN" "http://www.w3.org/Graphics/SVG/1.1/DTD/svg11.dtd" [
	<!ENTITY ns_flows "http://ns.adobe.com/Flows/1.0/">
]>
<svg version="1.1"
	 xmlns="http://www.w3.org/2000/svg" xmlns:xlink="http://www.w3.org/1999/xlink" xmlns:a="http://ns.adobe.com/AdobeSVGViewerExtensions/3.0/"
	 x="0px" y="0px" width="64px" height="64px" viewBox="0 0 64 64" overflow="visible" enable-background="new 0 0 64 64"
	 xml:space="preserve">
<defs>
</defs>
<path fill="#9B9B9B" d="M64.102,49.873c0,7.824-6.404,14.229-14.229,14.229H14.23C6.402,64.102,0,57.697,0,49.873V14.229
	C0,6.406,6.402,0,14.23,0h35.643c7.824,0,14.229,6.406,14.229,14.229V49.873z"/>
<path fill-rule="evenodd" clip-rule="evenodd" fill="#FFFFFF" d="M37.461,8.029c2.406,5.309,13.385,4.615,10.879,12.799
	c0.412,2.787,3.328,3.07,3.84,5.76c-1.406,4.127-5.262,5.527-3.199,11.52c-3.312,2.949-7.123,1.498-8.318,5.76
	c-0.896,3.184,2.424,6.6,1.918,10.879c-1.635-0.285-2.941-0.896-3.84-1.92c-1.705,0.641-2.109,2.582-3.199,3.84
	c-2.027-3.092-1.979-8.26-3.199-12.158c-2.625,2.283-2.283,7.531-3.842,10.879c-2.176-0.17-1.811-2.883-3.197-3.84
	c-1.846,0.287-2.004,2.264-4.482,1.92c-0.271-3.926,3.428-7.303,2.561-10.24c-1.162-3.936-4.656-2.135-7.68-5.119
	c1.775-5.592-1.143-7.557-3.199-10.881c0.17-3.027,2.797-3.604,3.84-5.758c0.016-2.705-1.238-4.135,0-6.4
	c7.582-0.059,8.301-10.664,16-5.119C34.299,9.561,35.676,8.59,37.461,8.029z M32.342,11.229c-7.314-5.771-7.811,4.934-15.361,4.48
	c1.098,6.002-1.635,8.178-3.199,11.518c1.793,2.904,4.285,5.102,3.199,10.881c4.721,0.826,7.842,3.254,9.602,7.039
	c3.49-2.238,8.027-2.238,11.518,0c1.762-3.785,4.881-6.213,9.602-7.039c-1.369-6.275,2.064-7.748,3.199-11.52
	c-2.188-2.506-4.021-5.365-3.199-10.879c-5.801,0.252-6.674-4.422-10.24-6.4C35.502,9.697,34.127,10.668,32.342,11.229z
	 M22.74,52.188c0.582-1.125,2.242-1.172,3.201-1.922c0.748,0.959,0.795,2.619,1.92,3.201c1.053-2.574,1.506-5.746,2.561-8.32
	c-1.939,0.869-5.279,1.031-6.4-0.639C24.207,47.277,21.393,50.379,22.74,52.188z M36.18,54.107c0.879-3.059,3.242-2.576,5.121-0.641
	c0.217-3.205-1.498-4.475-1.279-7.68c-2.826,0.264-4.947-0.174-6.4-1.279C34.34,47.842,34.029,52.205,36.18,54.107z"/>
<path fill-rule="evenodd" clip-rule="evenodd" fill="#FFFFFF" d="M38.1,20.188c0.842,0.227,1.008,1.127,1.922,1.281
	c-3.447,4.02-5.438,9.494-10.24,12.158c-0.732-2.951-4.922-4.209-3.199-7.68c1.754,0.592,2.674,2.018,3.199,3.84
	C33.707,27.74,35.316,23.377,38.1,20.188z"/>
</svg>
