<?xml version="1.0" encoding="utf-8"?>
<!-- Generator: Adobe Illustrator 15.1.0, SVG Export Plug-In  -->
<!DOCTYPE svg PUBLIC "-//W3C//DTD SVG 1.1//EN" "http://www.w3.org/Graphics/SVG/1.1/DTD/svg11.dtd" [
	<!ENTITY ns_flows "http://ns.adobe.com/Flows/1.0/">
]>
<svg version="1.1"
	 xmlns="http://www.w3.org/2000/svg" xmlns:xlink="http://www.w3.org/1999/xlink" xmlns:a="http://ns.adobe.com/AdobeSVGViewerExtensions/3.0/"
	 x="0px" y="0px" width="64px" height="64px" viewBox="0 0 64 64" overflow="visible" enable-background="new 0 0 64 64"
	 xml:space="preserve">
<defs>
</defs>
<path fill="#9B9B9B" d="M53.561,26.273c-1.477-0.203-4.668-0.363-5.672-0.969c-1.055-0.635-2.133-3.857-2.768-5.119
	c-1.086-2.16-1.895-4.205-2.768-5.535c-0.709,1.818-1.666,3.346-2.766,5.535c-0.719,1.43-1.51,4.43-2.768,5.119
	c-1.33,0.729-3.703,0.717-5.535,0.969c-1.953,0.266-3.93,0.381-5.811,0.83c1.078,1.289,2.594,2.73,4.15,4.287
	c1.023,1.023,3.957,2.885,4.152,4.568c0.18,1.572-0.666,3.688-0.971,5.533c-0.311,1.9-0.65,3.762-0.967,5.672
	c1.725-0.848,3.336-1.641,5.258-2.629c1.562-0.805,3.688-2.668,5.395-2.629c1.686,0.039,3.762,1.859,5.258,2.629
	c1.9,0.977,3.521,1.773,5.256,2.629c-0.314-1.902-0.654-3.762-0.967-5.672c-0.307-1.869-1.203-4.076-0.969-5.674
	c0.113-0.768,1.166-1.639,1.936-2.352c2.1-1.936,3.703-3.621,5.537-5.395c0.232-0.229,0.957-0.504,0.689-0.969
	C57.42,26.629,55.52,26.541,53.561,26.273z"/>
<path fill="#9B9B9B" d="M49.873,0H14.23C6.83,0,0.713,5.727,0.064,12.961C0.506,12.674,1,12.594,1.561,12.852
	c1.184,0.547,2.311,4.213,2.906,5.396c1.111,2.213,2.096,3.797,2.768,5.533c2.283,0.273,4.354,0.592,6.916,0.971
	c2.023,0.297,5.514,0.172,5.672,2.074c0.146,1.746-3.07,3.764-4.148,4.842c-1.684,1.684-2.969,2.947-4.43,4.428
	c0.369,2.186,0.814,4.418,1.246,6.918c0.34,1.955,1.543,5.785-0.691,6.088c-1.375,0.186-4.436-2.043-5.533-2.629
	c-2.062-1.1-3.592-1.814-5.396-2.768C0.574,43.832,0.291,43.977,0,44.111v5.762c0,7.824,6.402,14.229,14.23,14.229h35.643
	c7.824,0,14.229-6.404,14.229-14.229V14.229C64.102,6.406,57.697,0,49.873,0z M57.297,31.668c-1.684,1.684-2.969,2.947-4.428,4.428
	c0.367,2.186,0.812,4.418,1.244,6.918c0.34,1.955,1.543,5.785-0.691,6.088c-1.375,0.186-4.434-2.043-5.533-2.629
	c-2.061-1.1-3.592-1.814-5.396-2.768c-2.775,1.189-5.277,2.738-8.162,4.289c-0.77,0.414-2.191,1.203-2.906,1.107
	c-2.23-0.303-1.023-4.111-0.691-6.088c0.412-2.461,0.867-4.658,1.246-6.779c-2.135-2.186-4.143-4.449-6.641-6.779
	c-0.787-0.734-1.965-1.422-1.938-2.49c0.049-2.029,3.619-1.912,5.672-2.213c2.541-0.375,4.574-0.672,6.779-0.971
	c0.758-1.416,1.791-3.314,2.906-5.533c0.91-1.812,2.104-6.469,4.428-5.396c1.182,0.547,2.309,4.213,2.904,5.396
	c1.111,2.213,2.096,3.797,2.768,5.533c2.285,0.273,4.354,0.592,6.918,0.971c2.021,0.297,5.512,0.172,5.672,2.074
	C61.592,28.572,58.375,30.59,57.297,31.668z"/>
<path fill="#FFFFFF" d="M6.266,46.473c1.098,0.586,4.158,2.814,5.533,2.629c2.234-0.303,1.031-4.133,0.691-6.088
	c-0.432-2.5-0.877-4.732-1.246-6.918c1.461-1.48,2.746-2.744,4.43-4.428c1.078-1.078,4.295-3.096,4.148-4.842
	c-0.158-1.902-3.648-1.777-5.672-2.074c-2.562-0.379-4.633-0.697-6.916-0.971c-0.672-1.736-1.656-3.32-2.768-5.533
	c-0.596-1.184-1.723-4.85-2.906-5.396C1,12.594,0.506,12.674,0.064,12.961C0.027,13.381,0,13.801,0,14.229v29.883
	c0.291-0.135,0.574-0.279,0.869-0.406C2.674,44.658,4.203,45.373,6.266,46.473z"/>
<path fill="#FFFFFF" d="M55.775,24.752c-2.564-0.379-4.633-0.697-6.918-0.971c-0.672-1.736-1.656-3.32-2.768-5.533
	c-0.596-1.184-1.723-4.85-2.904-5.396c-2.324-1.072-3.518,3.584-4.428,5.396c-1.115,2.219-2.148,4.117-2.906,5.533
	c-2.205,0.299-4.238,0.596-6.779,0.971c-2.053,0.301-5.623,0.184-5.672,2.213c-0.027,1.068,1.15,1.756,1.938,2.49
	c2.498,2.33,4.506,4.594,6.641,6.779c-0.379,2.121-0.834,4.318-1.246,6.779c-0.332,1.977-1.539,5.785,0.691,6.088
	c0.715,0.096,2.137-0.693,2.906-1.107c2.885-1.551,5.387-3.1,8.162-4.289c1.805,0.953,3.336,1.668,5.396,2.768
	c1.1,0.586,4.158,2.814,5.533,2.629c2.234-0.303,1.031-4.133,0.691-6.088c-0.432-2.5-0.877-4.732-1.244-6.918
	c1.459-1.48,2.744-2.744,4.428-4.428c1.078-1.078,4.295-3.096,4.15-4.842C61.287,24.924,57.797,25.049,55.775,24.752z
	 M58.543,28.072c-1.834,1.773-3.438,3.459-5.537,5.395c-0.77,0.713-1.822,1.584-1.936,2.352c-0.234,1.598,0.662,3.805,0.969,5.674
	c0.312,1.91,0.652,3.77,0.967,5.672c-1.734-0.855-3.355-1.652-5.256-2.629c-1.496-0.77-3.572-2.59-5.258-2.629
	c-1.707-0.039-3.832,1.824-5.395,2.629c-1.922,0.988-3.533,1.781-5.258,2.629c0.316-1.91,0.656-3.771,0.967-5.672
	c0.305-1.846,1.15-3.961,0.971-5.533c-0.195-1.684-3.129-3.545-4.152-4.568c-1.557-1.557-3.072-2.998-4.15-4.287
	c1.881-0.449,3.857-0.564,5.811-0.83c1.832-0.252,4.205-0.24,5.535-0.969c1.258-0.689,2.049-3.689,2.768-5.119
	c1.1-2.189,2.057-3.717,2.766-5.535c0.873,1.33,1.682,3.375,2.768,5.535c0.635,1.262,1.713,4.484,2.768,5.119
	c1.004,0.605,4.195,0.766,5.672,0.969c1.959,0.268,3.859,0.355,5.672,0.83C59.5,27.568,58.775,27.844,58.543,28.072z"/>
</svg>
