<?xml version="1.0" encoding="utf-8"?>
<!-- Generator: Adobe Illustrator 15.1.0, SVG Export Plug-In  -->
<!DOCTYPE svg PUBLIC "-//W3C//DTD SVG 1.1//EN" "http://www.w3.org/Graphics/SVG/1.1/DTD/svg11.dtd" [
	<!ENTITY ns_flows "http://ns.adobe.com/Flows/1.0/">
]>
<svg version="1.1"
	 xmlns="http://www.w3.org/2000/svg" xmlns:xlink="http://www.w3.org/1999/xlink" xmlns:a="http://ns.adobe.com/AdobeSVGViewerExtensions/3.0/"
	 x="0px" y="0px" width="64px" height="64px" viewBox="0 0 64 64" overflow="visible" enable-background="new 0 0 64 64"
	 xml:space="preserve">
<defs>
</defs>
<path fill="#9B9B9B" d="M64.102,49.873c0,7.822-6.404,14.229-14.229,14.229H14.23C6.402,64.102,0,57.695,0,49.873V14.229
	C0,6.404,6.402,0,14.23,0h35.643c7.824,0,14.229,6.404,14.229,14.229V49.873z"/>
<path fill-rule="evenodd" clip-rule="evenodd" fill="#FFFFFF" d="M11.277,51.039c2.342-1.541,4.846-2.924,7.307-4.348
	c-4.494-4.586-8.129-9.738-7.48-18.266c0.82-10.801,10.037-19.568,22.613-18.613c10.928,0.828,19.562,10.125,18.615,22.613
	c-0.732,9.66-8.521,17.748-18.441,18.613C26.914,51.648,19.379,50.584,11.277,51.039z M45.025,43.908
	c11.863-11.768,3.062-33.461-14.438-32.357c-10.203,0.645-17.775,8.471-17.746,18.961c0.023,7.855,4.188,12.639,9.395,16.354
	c-1.492,0.711-2.945,1.461-4.174,2.436C30.092,49.84,39.328,49.559,45.025,43.908z"/>
<path fill-rule="evenodd" clip-rule="evenodd" fill="#FFFFFF" d="M20.148,23.381c7.771,0.115,16.004-0.232,23.484,0.174
	c0.291,4.701,0.291,10.607,0,15.309c-7.541,0.289-16.289,0.289-23.832,0c-0.404-4.641-0.059-10.029-0.174-14.961
	C19.725,23.652,19.898,23.479,20.148,23.381z M21.367,24.945c-0.137,0.041-0.203,0.146-0.174,0.35
	c3.219,2.348,7.006,4.125,10.611,6.088c2.693-1.467,5.494-3.098,8.002-4.523c0.812-0.461,2.092-0.715,2.436-1.738
	C35.631,24.715,28.268,25.062,21.367,24.945z M21.193,36.08c1.879-1.254,4.121-3.648,6.088-5.393
	c-2.057-1.074-3.971-2.293-6.088-3.307C21.193,30.281,21.193,33.18,21.193,36.08z M41.895,27.381
	c-1.717,1.357-4.066,2.082-5.74,3.48c0.926,0.799,2.066,1.801,3.129,2.781c0.936,0.863,2.174,2.426,2.959,2.264
	C42.016,33.176,42.699,29.533,41.895,27.381z M28.498,31.557c-1.459,1.449-3.379,3.303-4.869,4.697
	c-0.365,0.34-1.457,0.592-1.045,1.217c6.09,0,12.178,0,18.266,0c-1.506-1.916-4.125-4.223-6.438-5.914
	c-0.828,0.621-1.711,1.188-2.781,1.566C30.559,32.629,29.779,31.842,28.498,31.557z"/>
</svg>
